<?xml version="1.0" encoding="UTF-8" standalone="no"?>
<svg
   xmlns:dc="http://purl.org/dc/elements/1.1/"
   xmlns:cc="http://creativecommons.org/ns#"
   xmlns:rdf="http://www.w3.org/1999/02/22-rdf-syntax-ns#"
   xmlns:svg="http://www.w3.org/2000/svg"
   xmlns="http://www.w3.org/2000/svg"
   xmlns:xlink="http://www.w3.org/1999/xlink"
   xmlns:sodipodi="http://sodipodi.sourceforge.net/DTD/sodipodi-0.dtd"
   xmlns:inkscape="http://www.inkscape.org/namespaces/inkscape"
   width="210mm"
   height="297mm"
   viewBox="0 0 210 297"
   version="1.1"
   id="svg8"
   inkscape:version="1.0.1 (3bc2e813f5, 2020-09-07)"
   sodipodi:docname="ThisIs....svg">
  <defs
     id="defs2" />
  <sodipodi:namedview
     id="base"
     pagecolor="#ffffff"
     bordercolor="#666666"
     borderopacity="1.0"
     inkscape:pageopacity="0.0"
     inkscape:pageshadow="2"
     inkscape:zoom="0.35"
     inkscape:cx="400"
     inkscape:cy="560"
     inkscape:document-units="mm"
     inkscape:current-layer="layer1"
     inkscape:document-rotation="0"
     showgrid="false"
     inkscape:window-width="1920"
     inkscape:window-height="1017"
     inkscape:window-x="1912"
     inkscape:window-y="-8"
     inkscape:window-maximized="1" />
  <metadata
     id="metadata5">
    <rdf:RDF>
      <cc:Work
         rdf:about="">
        <dc:format>image/svg+xml</dc:format>
        <dc:type
           rdf:resource="http://purl.org/dc/dcmitype/StillImage" />
        <dc:title></dc:title>
      </cc:Work>
    </rdf:RDF>
  </metadata>
  <g
     inkscape:label="Layer 1"
     inkscape:groupmode="layer"
     id="layer1">
    
    <path
       style="fill:#000000;stroke-width:0.126986"
       d="m 35.923219,176.01294 c -3.89517,-0.47311 -7.90429,-1.89839 -10.98431,-3.90505 -5.38231,-3.50662 -9.23423,-8.90803 -10.79571,-15.13846 -0.70922,-2.82982 -0.91173,-6.68294 -0.49969,-9.50768 1.60703,-11.01711 9.963,-19.56308 20.94636,-21.42267 1.63504,-0.27683 4.80637,-0.37017 6.4763,-0.19062 7.73285,0.83143 14.39012,4.86381 18.61647,11.27619 2.98441,4.52806 4.49965,10.33958 4.06385,15.58643 -0.98515,11.86076 -9.45611,21.12091 -21.15648,23.1275 -1.3616,0.23351 -5.32614,0.3372 -6.66679,0.17436 z m 7.16127,-2.78308 c 4.73947,-1.0292 8.54633,-3.12241 11.83672,-6.50846 6.73479,-6.93059 8.33032,-17.33615 3.98789,-26.00792 -2.24135,-4.47592 -6.24352,-8.34746 -10.79043,-10.4382 -9.1049,-4.18657 -20.0189,-1.8387 -26.63597,5.73007 -7.80381,8.92619 -7.40349,22.38621 0.91648,30.81477 3.52173,3.56769 7.83079,5.79692 12.75304,6.5976 1.69785,0.27618 6.29692,0.16726 7.93227,-0.18786 z m -6.90729,-1.66846 c -1.27145,-0.16366 -2.71935,-0.47752 -3.72344,-0.80713 l -0.91156,-0.29924 7.04774,-0.004 c 6.33982,-0.003 6.99672,0.0152 6.5398,0.18285 -2.37688,0.87232 -6.2567,1.2741 -8.95254,0.9271 z m -6.93519,-2.12903 c -1.85753,-0.97092 -2.97843,-1.727 -4.33085,-2.92127 -7.83398,-6.91787 -9.34827,-18.34392 -3.59154,-27.09991 0.30657,-0.4663 0.56974,-0.8351 0.58481,-0.81956 0.0151,0.0156 -0.0512,1.56548 -0.1473,3.44429 -0.0961,1.87881 -0.1447,3.46455 -0.10804,3.52387 0.16865,0.27289 0.43272,0.0678 0.556,-0.43184 1.18247,-4.79222 3.09825,-6.82795 7.07355,-7.51642 1.27683,-0.22113 4.17238,-0.44921 5.72393,-0.45086 l 1.04764,-0.001 -0.004,13.93675 c -0.005,14.87214 -0.0177,15.21171 -0.62453,16.40129 -0.71846,1.4083 -2.47994,2.42444 -4.20277,2.42444 -0.20609,0 -0.37471,0.0571 -0.37471,0.12698 0,0.20437 -0.11772,0.15905 -1.60176,-0.61665 z m 16.78157,0.46408 c -1.28247,-0.16766 -2.06068,-0.45795 -2.76626,-1.0319 -0.81357,-0.66177 -1.43233,-1.81205 -1.61707,-3.00608 -0.0798,-0.5157 -0.12807,-6.06216 -0.12867,-14.78225 l -9.6e-4,-13.95684 2.381,0.0823 c 4.92009,0.17014 7.35593,0.89641 9.17741,2.73633 1.15532,1.16703 2.10056,3.12512 2.47684,5.13085 0.0968,0.51605 0.1994,0.63482 0.46149,0.53427 0.17168,-0.0659 0.15865,-0.96013 -0.0722,-4.95149 l -0.0734,-1.26986 0.40441,0.63493 c 2.22333,3.49068 3.41699,8.37246 3.04249,12.44309 -0.31741,3.45 -1.23369,6.32452 -2.91494,9.14459 -2.00452,3.36232 -5.41732,6.47462 -8.78776,8.01399 -0.74637,0.34088 -0.8979,0.36751 -1.58239,0.27803 z m -22.16406,-33.55512 c 0,-0.11452 1.37968,-1.35622 2.1807,-1.9626 2.65529,-2.01011 5.85873,-3.38823 9.18458,-3.95122 2.14922,-0.36381 5.49771,-0.31204 7.48641,0.11575 3.77108,0.81118 7.09369,2.51842 9.97268,5.12421 l 0.80673,0.73017 h -14.81555 c -8.14855,0 -14.81555,-0.0253 -14.81555,-0.0563 z m 112.827371,27.91003 c -0.4889,-0.10426 -1.31748,-0.36286 -1.8413,-0.57467 -0.52382,-0.2118 -1.11114,-0.4326 -1.30517,-0.49066 -0.43698,-0.13077 -1.0661,0.0719 -1.24171,0.40005 -0.0708,0.13234 -0.21247,0.24061 -0.31478,0.24061 -0.15851,0 -0.18601,-0.48015 -0.18601,-3.24746 0,-2.94037 0.0197,-3.24358 0.20801,-3.20641 0.1374,0.0271 0.34599,0.45062 0.6144,1.24743 0.22351,0.66351 0.58655,1.56089 0.80675,1.99419 0.54581,1.07399 1.76606,2.35285 2.66736,2.79546 0.63356,0.31113 0.86343,0.3533 1.92581,0.3533 1.01635,0 1.29638,-0.0467 1.77781,-0.29657 0.77874,-0.40416 1.48042,-1.10113 1.87477,-1.8622 0.71645,-1.38271 0.46557,-3.69161 -0.54257,-4.99334 -0.62908,-0.81226 -1.29158,-1.27375 -3.68145,-2.56446 -3.16794,-1.71092 -3.74229,-2.19377 -4.4783,-3.76482 -0.31699,-0.67664 -0.3466,-0.86807 -0.34044,-2.20143 0.006,-1.21329 0.0561,-1.58546 0.29837,-2.19994 0.64005,-1.62321 2.22353,-3.12655 3.79534,-3.60323 0.46692,-0.14161 1.1319,-0.21774 1.86791,-0.21387 1.01653,0.005 1.29728,0.0634 2.53972,0.52479 0.76827,0.28532 1.55134,0.55249 1.74017,0.59371 0.34755,0.0759 0.38081,0.0539 0.85217,-0.56187 0.13364,-0.17461 0.29077,-0.26995 0.34916,-0.21188 0.0584,0.0581 0.12414,1.50096 0.1461,3.20641 0.0344,2.67277 0.0139,3.10082 -0.14827,3.10082 -0.12554,0 -0.32373,-0.41214 -0.5954,-1.23812 -0.77274,-2.34942 -1.79041,-3.84896 -3.04235,-4.48294 -0.79836,-0.40429 -2.32204,-0.49193 -3.13759,-0.18047 -1.89805,0.72487 -2.79981,3.07714 -1.89143,4.93381 0.56065,1.14593 1.42872,1.81899 4.05054,3.14061 1.27151,0.64095 2.62613,1.37864 3.01026,1.6393 2.90425,1.97072 3.81021,5.30227 2.27562,8.36829 -1.3823,2.76175 -4.58348,4.09555 -8.0535,3.35556 z m 30.34974,0.001 c -0.4889,-0.10369 -1.396,-0.39047 -2.01577,-0.63727 -1.38014,-0.5496 -1.93553,-0.57821 -2.30202,-0.11858 -0.14479,0.18159 -0.36925,0.33016 -0.4988,0.33016 -0.21271,0 -0.22764,-0.0757 -0.15397,-0.78054 0.0449,-0.4293 0.0816,-1.89066 0.0816,-3.24747 0,-2.18368 0.0231,-2.4622 0.20118,-2.42586 0.12793,0.0261 0.32818,0.43396 0.55011,1.12045 1.14626,3.54554 2.98544,5.33342 5.48646,5.33342 1.66533,0 3.20421,-1.06189 3.78997,-2.61522 0.56072,-1.48691 0.13797,-3.6893 -0.93068,-4.84866 -0.68728,-0.7456 -1.25158,-1.12161 -3.41315,-2.27428 -3.18864,-1.70036 -4.01005,-2.41958 -4.60911,-4.03575 -1.04082,-2.80799 0.33688,-6.15483 3.06801,-7.45307 1.60199,-0.7615 3.12525,-0.76619 5.12722,-0.0158 1.78257,0.66817 1.91131,0.69591 2.23754,0.48216 0.1556,-0.10196 0.31968,-0.30119 0.3646,-0.44274 0.0449,-0.14154 0.15482,-0.25735 0.24421,-0.25735 0.19241,0 0.32683,1.89193 0.32774,4.61256 0,1.51333 -0.0264,1.74972 -0.19484,1.71432 -0.12356,-0.026 -0.36869,-0.55738 -0.66668,-1.44529 -0.52285,-1.55794 -1.0923,-2.58899 -1.89085,-3.42365 -0.78798,-0.82361 -1.4362,-1.1103 -2.66276,-1.17765 -0.91015,-0.05 -1.11647,-0.0184 -1.71432,0.26236 -0.88784,0.41695 -1.33623,0.86251 -1.74262,1.7316 -0.44221,0.94568 -0.45794,2.2111 -0.0383,3.07772 0.56017,1.15671 1.36864,1.7839 4.01327,3.11338 3.33824,1.67815 4.46345,2.52264 5.31284,3.98732 1.02556,1.76846 1.0262,4.24695 0.002,6.26882 -0.42176,0.8323 -1.70815,2.10915 -2.5596,2.54062 -1.54909,0.78498 -3.56115,1.01703 -5.41292,0.62427 z m 13.60149,-0.34505 c -1.20659,-0.73038 -1.4789,-2.47566 -0.54519,-3.49427 0.36948,-0.40308 1.19065,-0.77068 1.72927,-0.77413 1.43777,-0.009 2.61991,1.60937 2.17034,2.97159 -0.46706,1.41522 -2.1097,2.05026 -3.35442,1.29681 z m 9.46934,0.0868 c -0.54739,-0.26974 -1.03442,-0.91712 -1.1811,-1.56994 -0.30365,-1.35142 0.84301,-2.78801 2.22533,-2.78801 1.86466,0 2.93218,2.16795 1.82982,3.71606 -0.55603,0.78089 -1.95703,1.09378 -2.87405,0.64189 z m 9.43138,0.0349 c -0.49008,-0.21346 -1.00679,-0.82304 -1.2039,-1.42029 -0.33655,-1.01976 0.1884,-2.22398 1.17841,-2.70324 1.75119,-0.84774 3.58331,0.62358 3.21581,2.58251 -0.0961,0.51251 -0.69315,1.25893 -1.22828,1.53565 -0.44043,0.22775 -1.44518,0.2305 -1.96204,0.005 z M 73.511179,163.70546 c 0,-0.1887 0.11418,-0.26638 0.4762,-0.32399 2.17264,-0.34568 3.05271,-1.2352 3.32901,-3.36471 0.0707,-0.54476 0.12521,-5.25736 0.12745,-11.01573 l 0.004,-10.06366 -0.73017,0.003 c -1.26394,0.005 -3.78308,0.23555 -4.72936,0.43286 -2.65122,0.55279 -3.95826,2.00875 -4.82425,5.37388 -0.1074,0.41733 -0.19875,0.5397 -0.40289,0.5397 -0.24995,0 -0.26001,-0.049 -0.18908,-0.92066 0.0412,-0.50635 0.10651,-1.77781 0.14513,-2.82544 0.0386,-1.04764 0.10145,-2.2048 0.13962,-2.57148 l 0.0694,-0.66668 h 12.6895 12.6895 l 0.002,0.34922 c 0.001,0.19206 0.0553,1.32066 0.11986,2.50798 0.20886,3.83928 0.20602,4.06356 -0.0515,4.06356 -0.17428,0 -0.29668,-0.24519 -0.53566,-1.07295 -0.37238,-1.28985 -1.0475,-2.61701 -1.604,-3.15319 -0.66385,-0.63961 -1.80539,-1.25327 -2.85394,-1.53418 -0.95914,-0.25697 -3.51446,-0.5255 -5.00053,-0.5255 h -0.74347 v 10.62677 c 0,11.85665 -0.0179,11.59206 0.8544,12.61119 0.53992,0.63077 1.13816,0.94936 2.12538,1.13186 0.41221,0.0762 0.76754,0.13854 0.78964,0.13854 0.0221,0 0.0402,0.11429 0.0402,0.25398 0,0.25037 -0.0847,0.25397 -5.96836,0.25397 -5.83758,0 -5.96836,-0.005 -5.96836,-0.24822 z m 20.00035,0.12123 c -0.13194,-0.21349 0.0597,-0.38096 0.43599,-0.38096 0.57746,0 1.43657,-0.36143 1.87947,-0.7907 0.87513,-0.84821 0.8592,-0.67338 0.8592,-9.4317 0,-8.46325 0.003,-8.42557 -0.66097,-9.2143 -0.4114,-0.48892 -0.9389,-0.76212 -1.81526,-0.94013 -0.46263,-0.094 -0.69843,-0.20442 -0.69843,-0.32714 0,-0.15867 0.71581,-0.19005 4.98422,-0.2185 4.920151,-0.0328 4.984211,-0.0299 4.984211,0.22222 0,0.1405 -0.0829,0.25545 -0.18423,0.25545 -0.10132,0 -0.47726,0.0628 -0.83542,0.13965 -0.7601,0.16302 -1.40587,0.67431 -1.81327,1.43566 -0.26468,0.49462 -0.28021,0.6979 -0.31871,4.17082 l -0.0405,3.65086 h 5.47639 5.47638 l -0.039,-3.58736 c -0.0384,-3.53707 -0.0435,-3.59618 -0.35646,-4.21581 -0.43536,-0.86182 -1.02598,-1.29813 -2.03324,-1.50199 -0.55999,-0.11334 -0.82395,-0.22596 -0.82395,-0.35153 0,-0.15798 0.72229,-0.18957 4.98421,-0.21797 4.92015,-0.0328 4.98421,-0.0299 4.98421,0.22222 0,0.1405 -0.0829,0.25545 -0.18422,0.25545 -0.10133,0 -0.47727,0.0628 -0.83543,0.13965 -0.7601,0.16302 -1.40587,0.67431 -1.81327,1.43566 -0.27802,0.51954 -0.27824,0.52657 -0.27824,8.64709 0,8.93989 -0.0309,8.5696 0.78152,9.38197 0.49131,0.4913 0.96437,0.71411 1.70154,0.80142 0.50268,0.0595 0.6281,0.12187 0.6281,0.31215 0,0.22888 -0.18612,0.23652 -4.98421,0.20454 -4.31247,-0.0288 -4.98421,-0.0587 -4.98421,-0.22213 0,-0.12712 0.18691,-0.21567 0.57143,-0.2707 1.15962,-0.16597 1.81318,-0.60177 2.3174,-1.54527 0.27644,-0.51729 0.28713,-0.66721 0.32563,-4.56667 l 0.0398,-4.03182 h -5.46848 -5.46848 v 3.78655 c 0,4.23161 0.0727,4.73895 0.78273,5.46523 0.53786,0.55014 1.00017,0.77768 1.76382,0.86812 0.50113,0.0594 0.62811,0.12216 0.62811,0.31067 0,0.22635 -0.20805,0.23629 -4.944971,0.23629 -3.15967,0 -4.97331,-0.0459 -5.02346,-0.12699 z m 25.968711,-0.1093 c 0,-0.18842 0.12686,-0.2513 0.62625,-0.31045 1.17928,-0.13967 1.98706,-0.75923 2.43287,-1.866 0.26104,-0.64804 0.26523,-15.8128 0.005,-16.57172 -0.38717,-1.1273 -1.1731,-1.75021 -2.41636,-1.91514 -0.51185,-0.0679 -0.65053,-0.13334 -0.61989,-0.29253 0.0354,-0.18394 0.55298,-0.2085 5.02196,-0.23829 4.70794,-0.0314 4.98251,-0.0207 4.98251,0.19317 0,0.17634 -0.17108,0.2589 -0.7739,0.37346 -1.57261,0.29887 -2.22528,1.11058 -2.40756,2.99423 -0.14966,1.54653 -0.14836,12.92391 0.002,14.34948 0.0792,0.75307 0.21245,1.28718 0.41045,1.64562 0.37544,0.6797 1.23728,1.22044 2.10984,1.32378 0.53043,0.0628 0.65953,0.12436 0.65953,0.31439 0,0.22641 -0.20982,0.23629 -5.01596,0.23629 -4.80614,0 -5.01596,-0.01 -5.01596,-0.23629 z m 28.19097,-0.008 c 0,-0.24988 0.10098,-0.28742 1.23151,-0.45779 0.67522,-0.10176 1.56204,-0.68478 1.97641,-1.29934 0.67882,-1.0068 0.66516,-0.78457 0.66516,-10.82461 0,-8.57795 -0.0181,-9.38522 -0.22323,-9.97245 -0.45128,-1.29179 -1.49163,-2.10484 -2.92189,-2.28354 -0.5963,-0.0745 -0.72796,-0.13424 -0.72796,-0.33029 0,-0.23111 0.20757,-0.23934 6.03185,-0.23934 5.79855,0 6.03185,0.009 6.03185,0.23649 0,0.19205 -0.13127,0.25191 -0.69871,0.31861 -1.04193,0.12245 -1.65395,0.42014 -2.26807,1.10319 -0.93557,1.04059 -0.9063,0.67985 -0.9063,11.16733 0,9.89799 0,9.90183 0.6063,10.80641 0.39153,0.58438 1.36366,1.21593 2.0255,1.31589 1.14226,0.17251 1.24128,0.20916 1.24128,0.45944 0,0.2371 -0.16783,0.24388 -6.03185,0.24388 -5.86401,0 -6.03185,-0.007 -6.03185,-0.24388 z"
       id="path847" />
  </g>
</svg>
